# xmcd
#
# Track frame offsets: 
#        150
#        18060
#        28527
#        41580
#        69975
#        88312
#        103377
#        135770
#        148230
#        160162
#        170145
#        184820
#        195080
#        207020
#        222555
#
# Disc length: 3200 seconds
#
# Revision: 5
# Processed by: cddbd v1.5.1PL0 Copyright (c) Steve Scherf et al.
# Submitted via: ExactAudioCopy v0.95b2
#
DISCID=d10c7e0f
DTITLE=Buddy Guy - Buddy's Blues
DYEAR=1997
DGENRE=Blues
TTITLE0=Worried Mind
TTITLE1=First Time I Met The Blues
TTITLE2=Let Me Love You Baby
TTITLE3=I Found A True Love
TTITLE4=Pretty Baby
TTITLE5=My Time After A While
TTITLE6=Stone Crazy
TTITLE7=Keep It To Myself
TTITLE8=Ten Years Ago
TTITLE9=Got To Use Your Head
TTITLE10=I Cry And Sing The Blues
TTITLE11=She Suits Me To A Tee
TTITLE12=My Love Is Real
TTITLE13=Leave My Girl Alone
TTITLE14=When My Left Eye Jumps
EXTD=
EXTT0=
EXTT1=
EXTT2=
EXTT3=
EXTT4=
EXTT5=
EXTT6=
EXTT7=
EXTT8=
EXTT9=
EXTT10=
EXTT11=
EXTT12=
EXTT13=
EXTT14=
PLAYORDER=
